<?xml version="1.0" standalone="no"?>
<!DOCTYPE svg PUBLIC "-//W3C//DTD SVG 20010904//EN"
 "http://www.w3.org/TR/2001/REC-SVG-20010904/DTD/svg10.dtd">
<svg version="1.0" xmlns="http://www.w3.org/2000/svg"
 width="640.000000pt" height="640.000000pt" viewBox="0 0 640.000000 640.000000"
 preserveAspectRatio="xMidYMid meet">

<g transform="translate(0.000000,640.000000) scale(0.100000,-0.100000)"
fill="#000000" stroke="none">
<path d="M670 4040 c0 -27 -3 -30 -30 -30 l-30 0 0 -267 0 -267 -184 182 -183
182 -55 0 c-34 0 -60 -5 -67 -13 -17 -22 7 -37 59 -37 40 0 51 -5 80 -35 l34
-35 -74 -75 -74 -75 -73 0 c-71 0 -73 -1 -73 -25 0 -25 1 -25 82 -25 l83 0 82
82 83 83 140 -140 140 -140 0 -92 0 -93 -67 0 c-38 -1 -175 -1 -305 0 l-238 1
0 -26 0 -25 216 0 216 0 -53 -59 -54 -60 -162 0 -163 -1 0 -25 0 -25 168 0
167 0 85 85 85 85 52 0 53 0 0 -82 -1 -83 -140 -143 -141 -143 -82 79 -81 79
-83 2 c-82 2 -82 2 -82 -23 0 -25 1 -26 72 -26 l73 0 72 -72 72 -71 -31 -39
c-29 -35 -35 -38 -84 -38 -56 0 -73 -12 -54 -35 8 -10 32 -15 68 -15 l56 0
183 182 183 182 0 -277 0 -277 2485 0 2485 0 0 297 0 297 204 -202 203 -203
59 3 c51 3 59 6 59 23 0 17 -8 21 -54 25 -48 4 -57 9 -85 43 l-31 38 72 70 71
69 89 0 c86 0 90 -1 101 -25 15 -32 72 -60 106 -51 21 5 26 12 26 38 0 25 -3
29 -12 20 -15 -15 -51 -15 -66 0 -14 14 -16 57 -3 77 6 9 21 12 45 9 35 -4 37
-2 34 21 -3 22 -9 26 -41 29 -33 3 -43 -2 -71 -32 -33 -34 -34 -34 -132 -38
l-99 -3 -79 -78 -79 -79 -158 158 -159 159 0 67 0 68 67 0 67 0 87 -85 86 -85
174 0 c96 0 180 4 188 9 8 5 11 16 8 25 -6 14 -30 16 -180 16 l-173 0 -40 43
c-81 85 -103 77 218 77 l285 0 14 -27 14 -28 3 43 c2 23 2 59 0 80 l-3 37 -14
-27 -14 -28 -394 0 -393 0 1 78 2 77 159 155 158 154 83 -82 82 -82 92 0 91 0
36 -36 c30 -30 41 -35 73 -32 35 3 38 5 41 38 3 28 1 33 -9 23 -16 -16 -51
-17 -67 -1 -7 7 -12 25 -12 40 0 36 40 59 71 40 17 -11 19 -9 19 17 0 23 -5
30 -27 34 -38 7 -91 -17 -105 -47 -11 -25 -14 -26 -103 -26 l-93 0 -66 70
c-36 39 -66 74 -66 78 0 5 15 22 33 39 26 26 42 32 82 35 42 3 50 6 50 23 0
17 -8 20 -59 23 l-59 3 -203 -203 -204 -202 0 286 0 287 -32 -1 c-72 -2 -78 0
-78 32 0 23 -4 30 -20 30 -16 0 -20 -7 -20 -30 0 -23 -5 -30 -19 -30 -14 0
-21 8 -23 27 -2 17 -10 29 -20 31 -14 3 -18 -3 -18 -27 0 -26 -4 -31 -25 -31
-21 0 -25 5 -25 30 0 23 -4 30 -20 30 -16 0 -20 -7 -20 -30 0 -25 -4 -30 -25
-30 -21 0 -25 5 -25 30 0 39 -27 41 -32 3 -2 -20 -9 -29 -25 -31 -20 -3 -23 1
-23 27 0 24 -4 31 -20 31 -16 0 -20 -7 -20 -30 0 -25 -4 -30 -25 -30 -21 0
-25 5 -25 30 0 23 -4 30 -20 30 -16 0 -20 -7 -20 -30 0 -25 -4 -30 -25 -30
-21 0 -25 5 -25 30 0 20 -5 30 -15 30 -10 0 -15 -10 -15 -30 0 -25 -4 -30 -25
-30 -21 0 -25 5 -25 30 0 23 -4 30 -20 30 -16 0 -20 -7 -20 -30 0 -25 -4 -30
-25 -30 -21 0 -25 5 -25 30 0 23 -4 30 -20 30 -16 0 -20 -7 -20 -30 0 -25 -4
-30 -25 -30 -21 0 -25 5 -25 30 0 20 -5 30 -15 30 -10 0 -15 -10 -15 -30 0
-25 -4 -30 -25 -30 -21 0 -25 5 -25 30 0 23 -4 30 -20 30 -16 0 -20 -7 -20
-30 0 -25 -4 -30 -25 -30 -21 0 -25 5 -25 30 0 20 -5 30 -15 30 -8 0 -16 -4
-16 -10 -1 -5 -3 -14 -4 -20 -1 -5 -3 -14 -4 -20 0 -5 -10 -10 -21 -10 -16 0
-20 7 -20 30 0 23 -4 30 -20 30 -16 0 -20 -7 -20 -30 0 -25 -4 -30 -25 -30
-21 0 -25 5 -25 30 0 23 -4 30 -20 30 -16 0 -20 -7 -20 -30 0 -25 -4 -30 -25
-30 -21 0 -25 5 -25 30 0 23 -4 30 -20 30 -16 0 -20 -7 -20 -31 0 -26 -3 -30
-22 -27 -17 2 -24 11 -26 31 -5 38 -32 36 -32 -3 0 -25 -4 -30 -25 -30 -21 0
-25 5 -25 30 0 23 -4 30 -20 30 -16 0 -20 -7 -20 -30 0 -25 -4 -30 -25 -30
-21 0 -25 5 -25 30 0 39 -27 41 -32 3 -2 -20 -9 -29 -25 -31 -20 -3 -23 1 -23
27 0 24 -4 31 -20 31 -16 0 -20 -7 -20 -30 0 -25 -4 -30 -25 -30 -21 0 -25 5
-25 30 0 23 -4 30 -20 30 -16 0 -20 -7 -20 -30 0 -25 -4 -30 -25 -30 -21 0
-25 5 -25 30 0 23 -4 30 -20 30 -16 0 -20 -7 -20 -30 0 -23 -5 -30 -19 -30
-14 0 -21 8 -23 27 -2 17 -10 29 -20 31 -14 3 -18 -3 -18 -27 0 -26 -4 -31
-25 -31 -21 0 -25 5 -25 30 0 23 -4 30 -20 30 -16 0 -20 -7 -20 -30 0 -25 -4
-30 -25 -30 -21 0 -25 5 -25 30 0 39 -27 41 -32 3 -2 -20 -9 -29 -25 -31 -20
-3 -23 1 -23 27 0 24 -4 31 -20 31 -16 0 -20 -7 -20 -30 0 -25 -4 -30 -25 -30
-21 0 -25 5 -25 30 0 23 -4 30 -20 30 -16 0 -20 -7 -20 -31 0 -26 -3 -30 -22
-27 -17 2 -24 11 -26 31 -5 38 -32 36 -32 -3 0 -25 -4 -30 -25 -30 -21 0 -25
5 -25 30 0 23 -4 30 -20 30 -16 0 -20 -7 -20 -30 0 -25 -4 -30 -25 -30 -21 0
-25 5 -25 30 0 23 -4 30 -20 30 -16 0 -20 -7 -20 -30 0 -25 -4 -30 -25 -30
-21 0 -25 5 -25 30 0 23 -4 30 -20 30 -16 0 -20 -7 -20 -30 0 -23 -4 -30 -20
-30 -16 0 -20 7 -20 30 0 23 -4 30 -20 30 -16 0 -20 -7 -20 -30 0 -25 -4 -30
-25 -30 -21 0 -25 5 -25 30 0 23 -4 30 -20 30 -16 0 -20 -7 -20 -30 0 -23 -5
-30 -19 -30 -14 0 -21 8 -23 27 -2 17 -10 29 -20 31 -14 3 -18 -3 -18 -27 0
-26 -4 -31 -25 -31 -21 0 -25 5 -25 30 0 23 -4 30 -20 30 -16 0 -20 -7 -20
-30 0 -25 -4 -30 -25 -30 -21 0 -25 5 -25 30 0 23 -4 30 -20 30 -16 0 -20 -7
-20 -30 0 -25 -4 -30 -25 -30 -21 0 -25 5 -25 30 0 39 -27 41 -32 3 -2 -20 -9
-29 -25 -31 -20 -3 -23 1 -23 27 0 24 -4 31 -20 31 -16 0 -20 -7 -20 -30 0
-25 -4 -30 -25 -30 -21 0 -25 5 -25 30 0 23 -4 30 -20 30 -16 0 -20 -7 -20
-31 0 -26 -3 -30 -22 -27 -17 2 -23 10 -23 28 0 15 -7 26 -17 28 -14 3 -18 -3
-18 -27 0 -26 -4 -31 -25 -31 -21 0 -25 5 -25 30 0 23 -4 30 -20 30 -16 0 -20
-7 -20 -30 0 -25 -4 -30 -25 -30 -21 0 -25 5 -25 30 0 23 -4 30 -20 30 -16 0
-20 -7 -20 -30 0 -23 -4 -30 -20 -30 -16 0 -20 7 -20 30 0 23 -4 30 -20 30
-16 0 -20 -7 -20 -30 0 -25 -4 -30 -25 -30 -21 0 -25 5 -25 30 0 23 -4 30 -20
30 -16 0 -20 -7 -20 -30 0 -25 -4 -30 -25 -30 -21 0 -25 5 -25 30 0 31 -29 45
-31 15 -1 -8 -2 -21 -3 -27 0 -7 -11 -14 -23 -16 -17 -3 -22 2 -25 25 -2 17
-10 29 -20 31 -14 3 -18 -3 -18 -27 0 -26 -4 -31 -25 -31 -21 0 -25 5 -25 30
0 23 -4 30 -20 30 -16 0 -20 -7 -20 -30 0 -25 -4 -30 -25 -30 -21 0 -25 5 -25
30 0 20 -5 30 -15 30 -10 0 -15 -10 -15 -30 0 -25 -4 -30 -25 -30 -21 0 -25 5
-25 30 0 23 -4 30 -20 30 -16 0 -20 -7 -20 -30 0 -25 -4 -30 -25 -30 -21 0
-25 5 -25 30 0 23 -4 30 -20 30 -16 0 -20 -7 -20 -30 0 -25 -4 -30 -25 -30
-21 0 -25 5 -25 30 0 23 -4 30 -20 30 -16 0 -20 -7 -20 -30 0 -23 -5 -30 -19
-30 -14 0 -21 8 -23 27 -2 17 -10 29 -20 31 -14 3 -18 -3 -18 -27 0 -26 -4
-31 -25 -31 -21 0 -25 5 -25 30 0 23 -4 30 -20 30 -16 0 -20 -7 -20 -31 0 -26
-3 -30 -22 -27 -17 2 -24 11 -26 31 -5 38 -32 36 -32 -3 0 -25 -4 -30 -25 -30
-21 0 -25 5 -25 30 0 23 -4 30 -20 30 -16 0 -20 -7 -20 -30 0 -25 -4 -30 -25
-30 -21 0 -25 5 -25 30 0 23 -4 30 -20 30 -16 0 -20 -7 -20 -30 0 -25 -4 -30
-25 -30 -21 0 -25 5 -25 30 0 23 -4 30 -20 30 -16 0 -20 -7 -20 -30z m4838
-851 l2 -747 -22 -6 c-30 -8 -4746 -8 -4775 0 l-23 6 0 749 0 749 2408 -2
2407 -3 3 -746z"/>
<path d="M1114 3811 c-2 -2 -4 -35 -4 -72 0 -65 -1 -69 -26 -75 -14 -4 -47 -4
-75 -2 l-49 5 0 -463 0 -464 75 0 75 0 0 -75 0 -75 425 0 425 0 0 158 0 157
-257 -3 c-142 -2 -277 -1 -300 3 l-43 6 0 295 0 294 300 0 301 0 -3 155 -3
155 -418 3 c-230 1 -421 0 -423 -2z"/>
<path d="M2070 3203 l0 -613 200 0 200 0 0 165 0 165 70 0 70 0 0 -165 0 -165
200 0 200 0 0 613 0 612 -470 0 -470 0 0 -612z m532 175 c2 -94 -1 -156 -7
-161 -5 -4 -35 -6 -65 -5 -45 3 -55 6 -54 21 0 9 1 80 2 157 l2 140 59 0 60 0
3 -152z"/>
<path d="M3290 3743 c0 -70 -1 -73 -26 -79 -14 -4 -47 -4 -75 -2 l-49 5 0
-463 0 -464 75 0 75 0 0 -75 0 -75 420 0 420 0 0 158 0 157 -257 -3 c-142 -2
-277 -1 -301 3 l-42 6 2 292 3 292 298 3 297 2 0 158 0 157 -420 0 -420 0 0
-72z"/>
<path d="M4396 3797 c-2 -10 -3 -42 -2 -72 l3 -55 -34 -6 c-19 -4 -52 -4 -74
-1 l-39 5 0 -464 0 -464 70 0 69 0 3 -72 3 -73 423 -3 422 -2 0 157 0 158
-257 -3 c-142 -2 -277 -1 -300 3 l-43 6 0 295 0 294 300 0 300 0 0 158 0 157
-419 0 c-395 0 -420 -1 -425 -18z"/>
<path d="M1624 2191 c-2 -2 -4 -67 -4 -143 l0 -138 110 0 110 0 0 35 0 35 -60
0 c-53 0 -60 2 -60 20 0 18 7 20 60 20 l60 0 0 35 0 35 -60 0 c-53 0 -60 2
-60 20 0 18 7 20 60 20 l60 0 0 33 0 32 -106 0 c-58 0 -108 -2 -110 -4z"/>
<path d="M1880 2053 l0 -143 45 0 45 0 0 40 0 40 65 0 65 0 0 103 0 102 -110
0 -110 0 0 -142z m130 42 c0 -28 -4 -35 -20 -35 -16 0 -20 7 -20 35 0 28 4 35
20 35 16 0 20 -7 20 -35z"/>
<path d="M2130 2053 l0 -143 110 0 110 0 0 69 c0 58 -3 70 -17 74 -17 4 -17 5
0 6 14 1 17 11 17 69 l0 67 -110 0 -110 0 0 -142z m120 57 c0 -21 -15 -27 -25
-10 -7 12 2 30 16 30 5 0 9 -9 9 -20z m0 -110 c0 -21 -15 -27 -25 -10 -7 12 2
30 16 30 5 0 9 -9 9 -20z"/>
<path d="M2610 2182 c0 -8 -9 -16 -20 -19 -18 -5 -20 -14 -20 -114 0 -102 1
-109 20 -109 11 0 20 -7 20 -15 0 -12 18 -15 100 -15 l100 0 0 35 0 34 -72 3
-73 3 0 70 0 70 73 3 73 3 -3 31 -3 31 -98 1 c-75 1 -97 -2 -97 -12z"/>
<path d="M2834 2191 c-2 -2 -4 -67 -4 -143 l0 -138 50 0 50 0 0 40 c0 29 4 40
15 40 11 0 15 -11 15 -40 l0 -40 50 0 50 0 0 133 c0 72 -4 137 -8 142 -7 9
-209 15 -218 6z m124 -98 c-4 -52 -28 -56 -28 -4 0 30 4 41 16 41 11 0 14 -9
12 -37z"/>
<path d="M3090 2054 l0 -144 45 0 45 0 1 63 c1 34 3 54 6 45 6 -23 63 -25 63
-3 0 8 5 15 10 15 6 0 10 -27 10 -60 l0 -60 45 0 45 0 0 144 0 144 -45 0 c-37
-1 -45 -5 -45 -20 0 -10 -7 -18 -15 -18 -9 0 -18 -7 -21 -15 -4 -8 -10 -15
-15 -15 -5 0 -9 7 -9 15 0 8 -6 15 -14 15 -7 0 -16 8 -18 18 -4 13 -16 18 -46
19 l-42 2 0 -145z"/>
<path d="M3395 2182 c-3 -8 -5 -72 -5 -143 l0 -129 50 0 50 0 0 40 0 39 63 3
62 3 0 99 0 99 -107 1 c-81 1 -109 -2 -113 -12z m125 -87 c0 -24 -5 -35 -15
-35 -10 0 -15 11 -15 35 0 24 5 35 15 35 10 0 15 -11 15 -35z"/>
<path d="M3910 2108 l0 -87 68 -3 c52 -2 67 -6 67 -18 0 -12 -15 -16 -67 -18
l-68 -3 0 -34 0 -35 115 0 115 0 0 90 0 89 -67 3 c-53 2 -68 6 -68 18 0 12 15
16 68 18 l67 3 0 32 0 32 -115 0 -115 0 0 -87z"/>
<path d="M4360 2105 c0 -57 4 -95 10 -95 6 0 10 -11 10 -25 0 -14 7 -28 15
-31 8 -4 15 -15 15 -25 0 -17 8 -19 60 -19 53 0 60 2 60 20 0 11 7 20 15 20 9
0 15 9 15 25 0 13 7 28 15 33 13 7 15 25 13 98 l-3 89 -42 2 -42 1 -3 -106
c-3 -102 -4 -107 -25 -110 -23 -3 -23 -2 -23 107 l0 111 -45 0 -45 0 0 -95z"/>
<path d="M4619 2077 c0 -67 -2 -132 -3 -144 -2 -21 1 -23 46 -23 l48 0 0 144
0 143 -45 1 -45 1 -1 -122z"/>
<path d="M4736 2176 c-3 -12 -6 -76 -6 -143 l0 -123 50 0 51 0 -3 143 -3 142
-42 1 c-34 0 -43 -4 -47 -20z"/>
<path d="M1360 2065 c0 -104 2 -125 15 -125 8 0 15 -9 15 -20 0 -18 7 -20 85
-20 78 0 85 2 85 20 0 11 7 20 15 20 13 0 15 21 15 125 l0 125 -45 0 -45 0 0
-104 c0 -86 -3 -105 -16 -110 -29 -11 -34 5 -34 110 l0 104 -45 0 -45 0 0
-125z"/>
<path d="M3647 2183 c-4 -3 -7 -60 -7 -125 0 -111 1 -118 20 -118 13 0 20 -7
20 -20 0 -18 7 -20 85 -20 78 0 85 2 85 20 0 11 7 20 15 20 13 0 15 21 15 125
l0 125 -45 0 -45 0 0 -104 c0 -106 -5 -122 -38 -112 -15 5 -17 17 -14 86 6
115 0 130 -47 130 -21 0 -41 -3 -44 -7z"/>
<path d="M1179 2024 c-16 -20 -1 -48 29 -52 29 -5 47 31 26 52 -20 20 -38 20
-55 0z"/>
<path d="M4970 2030 c-6 -4 -10 -18 -8 -31 2 -19 9 -24 33 -24 25 0 30 4 33
28 2 15 0 27 -5 28 -4 0 -15 2 -24 4 -9 1 -22 -1 -29 -5z"/>
</g>
</svg>
